# xmcd
#
# Track frame offsets: 
#        150
#        26778
#        54417
#        88458
#        123026
#        147962
#        180479
#        205701
#        226494
#
# Disc length: 3443 seconds
#
# Revision: 1
# Processed by: cddbd v1.5.2PL0 Copyright (c) Steve Scherf et al.
# Submitted via: ExactAudioCopyFreeDBPlugin 1.0
#
DISCID=770d7109
DTITLE=Teena Marie - Wild And Peaceful
DYEAR=1979
DGENRE=Funk
TTITLE0=I'm A Sucker For Your Love
TTITLE1=Turnin' Me On
TTITLE2=Don't Look Back
TTITLE3=Deja Vu  (I've Been Here Before)
TTITLE4=I'm Gonna Have My Cake (And Eat It Too)
TTITLE5=I Can't Love Anymore
TTITLE6=I'm A Sucker For Your Love (Instrumental)
TTITLE7=You Got The Love
TTITLE8=Every Little Bit Hurts (With Rick James)
EXTD=
EXTT0=
EXTT1=
EXTT2=
EXTT3=
EXTT4=
EXTT5=
EXTT6=
EXTT7=
EXTT8=
PLAYORDER=
